<svg xmlns="http://www.w3.org/2000/svg" viewBox="0 0 400 500" width="400" height="500" role="presentation">
  <defs>
    <linearGradient id="bg" x1="0" y1="0" x2="0.6" y2="1">
      <stop offset="0%" stop-color="#FDF7EE"/>
      <stop offset="100%" stop-color="#F4E4CA"/>
    </linearGradient>
    <radialGradient id="glow" cx="0.42" cy="0.34" r="0.72">
      <stop offset="0%" stop-color="#FFFFFF" stop-opacity="0.9"/>
      <stop offset="100%" stop-color="#FFFFFF" stop-opacity="0"/>
    </radialGradient>
  </defs>
  <rect width="400" height="500" fill="url(#bg)"/>
  <rect width="400" height="500" fill="url(#glow)"/>
  <ellipse cx="200" cy="256" rx="132" ry="132" fill="#F0E4CC" opacity="0.75"/>
  <ellipse cx="200" cy="430" rx="96" ry="15" fill="#C9A227" opacity="0.16"/>
  <g fill="none" stroke="#1A1512" stroke-width="3.2" stroke-linecap="round" stroke-linejoin="round">

    <path d="M152 142 Q200 168 248 142 L294 164 L322 296 L280 312 L268 240 L268 376 Q200 390 132 376 L132 240 L120 312 L78 296 L106 164 Z" fill="#E3D2B4"/>
    <path d="M152 142 Q200 168 248 142" />
    <path d="M162 148 Q200 176 238 148" stroke-width="2.4" opacity="0.55"/>
    <path d="M132 356 Q200 368 268 356" stroke-width="2.4" opacity="0.55"/>
    <path d="M132 240 L132 376"/>
    <path d="M268 240 L268 376"/>

  </g>
</svg>
