<svg xmlns="http://www.w3.org/2000/svg" viewBox="0 0 400 500" width="400" height="500" role="presentation">
  <defs>
    <linearGradient id="bg" x1="0" y1="0" x2="0.6" y2="1">
      <stop offset="0%" stop-color="#FDF7EE"/>
      <stop offset="100%" stop-color="#F4E4CA"/>
    </linearGradient>
    <radialGradient id="glow" cx="0.42" cy="0.34" r="0.72">
      <stop offset="0%" stop-color="#FFFFFF" stop-opacity="0.9"/>
      <stop offset="100%" stop-color="#FFFFFF" stop-opacity="0"/>
    </radialGradient>
  </defs>
  <rect width="400" height="500" fill="url(#bg)"/>
  <rect width="400" height="500" fill="url(#glow)"/>
  <ellipse cx="200" cy="256" rx="132" ry="132" fill="#E9EDF0" opacity="0.75"/>
  <ellipse cx="200" cy="430" rx="96" ry="15" fill="#C9A227" opacity="0.16"/>
  <g fill="none" stroke="#1A1512" stroke-width="3.2" stroke-linecap="round" stroke-linejoin="round">

    <path d="M186 128 Q168 176 168 246 Q168 300 176 330 L176 356 Q176 372 194 372 L296 372 Q312 372 312 356 Q312 340 296 340 L214 340 Q204 306 204 246 Q204 182 220 136 Z" fill="#F2EFE8"/>
    <path d="M186 128 Q168 176 168 246 Q168 300 176 330 L176 356 Q176 372 194 372 L296 372 Q312 372 312 356 Q312 340 296 340 L214 340 Q204 306 204 246 Q204 182 220 136 Z"/>
    <rect x="150" y="168" width="86" height="22" rx="11" fill="#D8C7A2"/>
    <rect x="152" y="256" width="80" height="22" rx="11" fill="#D8C7A2"/>
    <path d="M176 330 L296 330" stroke-width="2.4" opacity="0.6"/>

  </g>
</svg>
