<svg xmlns="http://www.w3.org/2000/svg" viewBox="0 0 400 500" width="400" height="500" role="presentation">
  <defs>
    <linearGradient id="bg" x1="0" y1="0" x2="0.6" y2="1">
      <stop offset="0%" stop-color="#FDF7EE"/>
      <stop offset="100%" stop-color="#F4E4CA"/>
    </linearGradient>
    <radialGradient id="glow" cx="0.42" cy="0.34" r="0.72">
      <stop offset="0%" stop-color="#FFFFFF" stop-opacity="0.9"/>
      <stop offset="100%" stop-color="#FFFFFF" stop-opacity="0"/>
    </radialGradient>
  </defs>
  <rect width="400" height="500" fill="url(#bg)"/>
  <rect width="400" height="500" fill="url(#glow)"/>
  <ellipse cx="200" cy="256" rx="132" ry="132" fill="#EADFCB" opacity="0.75"/>
  <ellipse cx="200" cy="430" rx="96" ry="15" fill="#C9A227" opacity="0.16"/>
  <g fill="none" stroke="#1A1512" stroke-width="3.2" stroke-linecap="round" stroke-linejoin="round">

    <rect x="86" y="330" width="240" height="34" rx="10" fill="#B08650"/>
    <path d="M112 330 L112 214 Q112 196 132 196 L156 196" fill="none" stroke-width="12" stroke="#3F4A52"/>
    <path d="M156 196 L286 196 Q306 196 306 214 L306 246 Q306 262 288 262 L272 262" fill="none" stroke-width="12" stroke="#3F4A52"/>
    <rect x="96" y="240" width="48" height="92" rx="10" fill="#4C575F"/>
    <rect x="256" y="248" width="34" height="46" rx="8" fill="#4C575F"/>
    <path d="M273 294 L273 322" stroke-width="4"/>
    <circle cx="273" cy="326" r="4" fill="#1A1512"/>
    <path d="M120 330 Q186 300 268 330" stroke="#D98436" stroke-width="4" stroke-dasharray="9 8" fill="none"/>
    <path d="M86 340 Q150 314 218 330 Q286 346 326 336" fill="#AECBDD" opacity="0.9" stroke="none"/>
    <path d="M86 340 Q150 314 218 330 Q286 346 326 336" stroke-width="2.8"/>

  </g>
</svg>
